#!OML:ASF F:\VICON\USERDATA\INSTALL\Justin_Nancy\Justin_Nancy.ASF
:FULLY-SPECIFIED
:DEGREES
189
root 13.1812 17.5004 0.220141 1.83099 -3.18359 5.35026
lowerback 7.50265 -0.585599 -7.28899
upperback -0.114502 -1.3798 0.959448
thorax -4.14326 -0.522609 5.25949
lowerneck -16.0185 -4.18921 -10.0961
upperneck 25.0047 -4.99099 6.71466
head 11.1846 -2.42996 3.43864
rclavicle -8.64713e-015 3.97569e-015
rhumerus -34.8597 -17.5883 -77.7463
rradius 28.6255
rwrist 10.2554
rhand -12.5613 13.8395
rfingers 7.12502
rthumb 13.5161 -15.7019
lclavicle -8.64713e-015 3.97569e-015
lhumerus -23.1297 7.87347 81.4823
lradius 27.8152
lwrist -8.05714
lhand -16.3622 24.6085
lfingers 7.12502
lthumb 9.85072 54.358
rfemur -31.6867 -11.471 21.8293
rtibia 39.4004
rfoot -8.32112 -22.9168
rtoes 7.93805
lfemur -10.0173 3.16584 -26.3431
ltibia 27.8043
lfoot -14.6938 6.85836
ltoes -2.65425
190
root 13.1632 17.5046 0.323152 1.99381 -3.62627 5.55001
lowerback 7.32714 -0.617785 -7.27363
upperback -0.129019 -1.41544 0.782036
thorax -4.05918 -0.54543 5.06272
lowerneck -16.1141 -4.24345 -10.0678
upperneck 25.2046 -5.10161 6.79616
head 11.2912 -2.46854 3.45076
rclavicle 4.96962e-016 -9.54166e-015
rhumerus -34.8047 -17.5827 -78.0209
rradius 28.6844
rwrist 10.4856
rhand -13.0163 13.0516
rfingers 7.12502
rthumb 13.0775 -16.5184
lclavicle 4.96962e-016 -9.54166e-015
lhumerus -23.0411 7.75306 81.1174
lradius 28.1582
lwrist -7.84959
lhand -16.3437 25.6564
lfingers 7.12502
lthumb 9.86856 55.4051
rfemur -31.968 -11.7239 22.0804
rtibia 37.323
rfoot -9.5499 -23.1845
rtoes 9.81748
lfemur -9.56554 2.97475 -26.5307
ltibia 27.2452
lfoot -14.8566 7.60362
ltoes -3.31983
191
root 13.1476 17.5104 0.427303 2.10918 -4.14903 5.71686
lowerback 7.12335 -0.623537 -6.95439
upperback -0.0615941 -1.39181 0.435426
thorax -3.89208 -0.551861 4.50899
lowerneck -16.5465 -4.213 -9.76686
upperneck 25.4025 -5.1389 6.88957
head 11.448 -2.43915 3.42949
rclavicle -3.27995e-015 -1.47101e-014
rhumerus -34.5362 -17.3568 -78.8834
rradius 29.427
rwrist 11.0525
rhand -12.4935 8.41629
rfingers 7.12502
rthumb 13.5814 -21.1207
lclavicle -3.27995e-015 -1.47101e-014
lhumerus -22.6501 7.46795 80.6025
lradius 28.1859
lwrist -7.55006
lhand -16.6535 24.5949
lfingers 7.12502
lthumb 9.5697 54.3575
rfemur -32.1862 -12.0224 22.3986
rtibia 35.2452
rfoot -10.4226 -23.4777
rtoes 10.093
lfemur -8.96143 2.83995 -26.7273
ltibia 26.6742
lfoot -15.0915 8.43626
ltoes -4.67448
192
root 13.1324 17.513 0.541907 2.1602 -4.70408 5.84784
lowerback 6.92692 -0.579902 -6.77797
upperback 0.0196589 -1.3082 0.254727
thorax -3.71485 -0.524056 4.20624
lowerneck -16.7539 -4.23733 -9.66119
upperneck 25.3979 -5.19956 6.94081
head 11.4915 -2.44633 3.41948
rclavicle 1.2424e-015 -2.26615e-014
rhumerus -34.3295 -17.8505 -78.9072
rradius 28.847
rwrist 10.7671
rhand -13.1352 11.1215
rfingers 7.12502
rthumb 12.9629 -18.4558
lclavicle 1.2424e-015 -2.26615e-014
lhumerus -22.2112 7.42002 80.3087
lradius 27.8764
lwrist -7.30881
lhand -17.4139 20.5656
lfingers 7.12502
lthumb 8.83592 50.3606
rfemur -32.2992 -12.3538 22.7608
rtibia 33.2417
rfoot -10.5527 -23.352
rtoes 9.10887
lfemur -8.25425 3.095 -26.8482
ltibia 26.0634
lfoot -15.2001 8.53139
ltoes -4.1526
193
root 13.1197 17.5011 0.656613 2.16682 -5.40582 6.16327
lowerback 6.94475 -0.494615 -7.00306
upperback -0.0722136 -1.21951 0.215619
thorax -3.82869 -0.469657 4.28531
lowerneck -16.4882 -4.27751 -9.68084
upperneck 25.2326 -5.20314 6.7041
head 11.3707 -2.48302 3.33198
rclavicle 2.48481e-014 -7.95139e-015
rhumerus -34.3692 -17.4523 -78.9315
rradius 28.7948
rwrist 9.98387
rhand -13.4602 12.0851
rfingers 7.12502
rthumb 12.6495 -17.5119
lclavicle 2.48481e-014 -7.95139e-015
lhumerus -22.2621 7.58341 80.2433
lradius 27.8962
lwrist -6.9918
lhand -17.4895 22.8116
lfingers 7.12502
lthumb 8.76297 52.6097
rfemur -32.4763 -12.7833 23.0214
rtibia 31.415
rfoot -10.5702 -23.1197
rtoes 8.3779
lfemur -7.46544 3.54809 -27.202
ltibia 25.3391
lfoot -15.2406 8.64972
ltoes -2.47142
194
root 13.1012 17.4918 0.76559 2.17354 -6.10475 6.56725
lowerback 6.91135 -0.437244 -7.3428
upperback -0.137612 -1.17364 0.145553
thorax -3.87987 -0.437312 4.39903
lowerneck -16.1633 -4.31689 -9.65319
upperneck 24.9055 -5.20247 6.41148
head 11.1744 -2.51927 3.21479
rclavicle -1.14798e-014 -3.97569e-016
rhumerus -34.2669 -17.1816 -79.0319
rradius 28.7861
rwrist 9.57461
rhand -13.5169 12.3463
rfingers 7.12502
rthumb 12.5949 -17.2541
lclavicle -1.14798e-014 -3.97569e-016
lhumerus -22.3528 7.91182 80.1081
lradius 28.149
lwrist -7.01752
lhand -17.157 25.1799
lfingers 7.12502
lthumb 9.08382 54.9643
rfemur -32.7667 -13.0648 23.2161
rtibia 29.9137
rfoot -10.9173 -26.7818
rtoes -0.646926
lfemur -6.56907 3.84009 -27.6897
ltibia 24.3929
lfoot -15.0795 9.25148
ltoes -2.77289
195
root 13.0783 17.4825 0.870406 2.23926 -6.73147 6.94763
lowerback 6.67732 -0.441111 -7.68081
upperback -0.120489 -1.18681 0.0967396
thorax -3.72357 -0.444506 4.53446
lowerneck -16.0646 -4.36917 -9.71979
upperneck 24.6888 -5.21505 6.25362
head 11.0733 -2.55055 3.16251
rclavicle -7.00716e-015 7.15625e-015
rhumerus -34.0497 -17.1189 -79.0981
rradius 28.7897
rwrist 9.60826
rhand -13.4566 12.8565
rfingers 7.12502
rthumb 12.653 -16.7403
lclavicle -7.00716e-015 7.15625e-015
lhumerus -22.2718 8.29468 79.9351
lradius 28.3008
lwrist -6.98775
lhand -16.4207 26.2982
lfingers 7.12502
lthumb 9.79432 56.0505
rfemur -33.0132 -13.2688 23.4231
rtibia 28.4122
rfoot -11.1597 -23.9354
rtoes 7.72289
lfemur -5.8604 3.85766 -28.1692
ltibia 23.6007
lfoot -14.9198 9.84627
ltoes -5.2644
196
root 13.0577 17.4647 0.98118 2.29687 -7.28912 7.23225
lowerback 6.38024 -0.410672 -7.83866
upperback -0.0884091 -1.13221 0.0482666
thorax -3.52832 -0.423822 4.56122
lowerneck -16.1431 -4.49958 -9.76688
upperneck 24.7367 -5.33707 6.08778
head 11.116 -2.62957 3.09021
rclavicle -1.13804e-014 7.95139e-015
rhumerus -33.9113 -16.7655 -79.2344
rradius 28.9694
rwrist 9.42071
rhand -13.6182 12.7663
rfingers 7.12502
rthumb 12.4972 -16.84
lclavicle -1.13804e-014 7.95139e-015
lhumerus -22.2036 8.51062 79.8286
lradius 28.4065
lwrist -7.13292
lhand -15.7287 27.0236
lfingers 7.12502
lthumb 10.4619 56.7433
rfemur -33.1755 -13.6198 23.7027
rtibia 27.0367
rfoot -11.6658 -25.8685
rtoes 7.6639
lfemur -5.22978 3.88486 -28.5355
ltibia 22.8175
lfoot -13.9918 10.6315
ltoes -8.68045
197
root 13.0362 17.5038 1.08864 2.30512 -7.82151 7.5695
lowerback 6.3358 -0.382901 -8.08292
upperback -0.19195 -1.11552 0.0172426
thorax -3.6109 -0.40498 4.66505
lowerneck -16.122 -4.57205 -9.80707
upperneck 24.9189 -5.39886 5.93318
head 11.1838 -2.68278 3.03313
rclavicle 1.39149e-015 3.10104e-014
rhumerus -34.0873 -16.2811 -79.3049
rradius 29.4582
rwrist 9.19024
rhand -13.8357 12.2027
rfingers 7.12502
rthumb 12.2876 -17.4163
lclavicle 1.39149e-015 3.10104e-014
lhumerus -22.3486 8.54227 79.7463
lradius 28.4408
lwrist -7.21149
lhand -14.9667 28.4146
lfingers 7.12502
lthumb 11.1969 58.0958
rfemur -33.104 -13.786 23.8134
rtibia 25.6691
rfoot -12.2547 -26.7206
rtoes 10.0616
lfemur -4.58414 4.48786 -28.8952
ltibia 22.1287
lfoot -14.0262 10.452
ltoes -2.60216
198
root 13.0123 17.4843 1.19349 2.39719 -8.49609 7.50374
lowerback 6.38926 -0.396166 -8.04255
upperback -0.391293 -1.13814 0.178539
thorax -3.8446 -0.399678 4.81715
lowerneck -15.8906 -4.49739 -10.0562
upperneck 24.9282 -5.23217 5.87134
head 11.1333 -2.64349 3.08006
rclavicle 4.09496e-014 -8.74653e-015
rhumerus -34.2092 -15.6407 -79.286
rradius 29.6984
rwrist 8.76542
rhand -13.7183 12.6626
rfingers 7.12502
rthumb 12.4007 -16.9496
lclavicle 4.09496e-014 -8.74653e-015
lhumerus -22.6854 8.84428 79.7217
lradius 28.3061
lwrist -6.40186
lhand -15.6307 28.8272
lfingers 7.12502
lthumb 10.5564 58.5421
rfemur -33.2181 -13.6326 24.4592
rtibia 24.3543
rfoot -11.8438 -27.6423
rtoes 13.0403
lfemur -3.93456 4.64307 -28.828
ltibia 21.5773
lfoot -13.9237 11.0103
ltoes 0.323168
199
root 12.9825 17.4599 1.3008 2.42707 -9.19535 7.58392
lowerback 6.26618 -0.387928 -8.15997
upperback -0.404742 -1.12271 0.244326
thorax -3.78839 -0.390982 4.94889
lowerneck -15.9425 -4.53814 -10.1507
upperneck 24.8592 -5.23332 5.78657
head 11.1192 -2.66202 3.06237
rclavicle 3.84648e-014 -1.35174e-014
rhumerus -34.0066 -15.3135 -79.4178
rradius 29.8672
rwrist 8.30026
rhand -13.5047 13.0406
rfingers 7.12502
rthumb 12.6066 -16.559
lclavicle 3.84648e-014 -1.35174e-014
lhumerus -22.7827 9.54917 79.5446
lradius 28.4348
lwrist -7.38888
lhand -15.5283 30.0962
lfingers 7.12502
lthumb 10.6552 59.8061
rfemur -33.1203 -13.2334 24.8348
rtibia 22.9597
rfoot -11.2436 -28.833
rtoes 18.63
lfemur -3.32653 4.72621 -28.8961
ltibia 21.2638
lfoot -14.0536 11.6059
ltoes 3.8476
200
root 12.952 17.4675 1.40264 2.48666 -9.74394 7.53179
lowerback 6.10584 -0.421146 -8.14399
upperback -0.325825 -1.14258 0.365728
thorax -3.60993 -0.410082 5.06516
lowerneck -16.0256 -4.77465 -10.2317
upperneck 24.6549 -5.47852 5.59714
head 11.0807 -2.79987 2.9642
rclavicle 4.36332e-014 1.74931e-014
rhumerus -33.6314 -14.8083 -79.6488
rradius 30.251
rwrist 8.08911
rhand -13.2765 12.2592
rfingers 7.12502
rthumb 12.8267 -17.3267
lclavicle 4.36332e-014 1.74931e-014
lhumerus -22.754 9.86374 79.5475
lradius 28.3051
lwrist -6.90124
lhand -17.1799 26.5997
lfingers 7.12502
lthumb 9.06174 56.385
rfemur -32.9699 -12.7147 25.1965
rtibia 21.8938
rfoot -11.6585 -30.4297
rtoes 22.8188
lfemur -3.01477 4.80753 -28.8195
ltibia 20.8235
lfoot -13.6324 12.1723
ltoes -1.12039
